<?xml version="1.0" standalone="no"?>
<!DOCTYPE svg PUBLIC "-//W3C//DTD SVG 20010904//EN"
 "http://www.w3.org/TR/2001/REC-SVG-20010904/DTD/svg10.dtd">
<svg version="1.0" xmlns="http://www.w3.org/2000/svg"
 width="500.000000pt" height="500.000000pt" viewBox="0 0 500.000000 500.000000"
 preserveAspectRatio="xMidYMid meet">
<metadata>
Created by potrace 1.11, written by Peter Selinger 2001-2013
</metadata>
<g transform="translate(0.000000,500.000000) scale(0.100000,-0.100000)"
fill="#000000" stroke="none">
<path d="M0 2500 l0 -2500 2500 0 2500 0 0 2500 0 2500 -2500 0 -2500 0 0
-2500z m3625 1115 l25 -24 0 -616 0 -616 -25 -24 -24 -25 -807 0 -808 0 -23
22 c-22 20 -23 29 -23 150 0 70 -3 128 -8 128 -4 0 -18 -7 -30 -16 l-22 -15 0
-551 c0 -542 0 -551 -21 -585 -36 -57 -86 -75 -198 -71 -81 2 -101 7 -129 26
-64 46 -67 60 -70 335 l-4 248 -29 6 c-16 3 -41 19 -55 36 l-25 29 3 339 c3
337 3 339 26 361 22 22 30 23 245 28 211 5 224 6 270 29 l47 25 0 382 0 383
26 20 c27 21 32 21 831 21 l804 0 24 -25z m-1860 -334 c22 -10 57 -36 77 -59
81 -90 77 -214 -12 -302 -93 -93 -216 -93 -311 0 -115 111 -81 294 66 361 51
24 129 24 180 0z"/>
<path d="M2100 3199 c0 -221 3 -280 13 -276 6 3 49 22 95 43 77 35 85 36 120
25 38 -13 40 -12 250 93 117 58 216 106 222 106 9 0 45 -59 38 -65 -2 -1 -102
-52 -223 -113 -211 -105 -220 -111 -231 -146 l-11 -36 33 0 34 0 0 -100 0
-100 -100 0 -100 0 0 65 0 65 -70 -35 -70 -35 0 -110 0 -110 695 0 695 0 0
505 0 505 -695 0 -695 0 0 -281z m1162 -1 l117 -203 -119 -3 c-66 -1 -173 -1
-239 0 l-119 3 117 202 c64 112 118 203 121 203 3 0 58 -91 122 -202z m-522
-468 l0 -100 -95 0 -95 0 0 100 0 100 95 0 95 0 0 -100z m308 -2 l3 -98 -101
0 -100 0 0 100 0 101 98 -3 97 -3 3 -97z m302 2 l0 -100 -100 0 -100 0 0 100
0 100 100 0 100 0 0 -100z"/>
</g>
</svg>
